<?xml version="1.0" standalone="no"?>
<!DOCTYPE svg PUBLIC "-//W3C//DTD SVG 20010904//EN"
 "http://www.w3.org/TR/2001/REC-SVG-20010904/DTD/svg10.dtd">
<svg version="1.0" xmlns="http://www.w3.org/2000/svg"
 width="626.000000pt" height="626.000000pt" viewBox="0 0 626.000000 626.000000"
 preserveAspectRatio="xMidYMid meet">

<g transform="translate(0.000000,626.000000) scale(0.100000,-0.100000)"
fill="#000000" stroke="none">
<path d="M3018 5130 c-71 -21 -118 -88 -118 -166 0 -53 -31 -75 -96 -67 -39 4
-62 1 -98 -15 -43 -20 -49 -20 -89 -6 -78 28 -166 -6 -203 -78 -16 -31 -16
-107 1 -155 6 -20 4 -23 -16 -23 -40 0 -102 -43 -127 -87 -18 -34 -29 -41 -61
-47 -74 -12 -133 -105 -117 -188 5 -30 2 -35 -30 -56 -45 -29 -76 -97 -73
-157 2 -36 -2 -49 -29 -79 -33 -37 -37 -49 -47 -126 -3 -25 -8 -64 -11 -87 -6
-39 -3 -46 29 -78 19 -19 42 -35 51 -35 9 0 16 -8 16 -20 0 -17 169 -1871 186
-2038 l6 -62 -43 0 c-38 1 -47 5 -64 32 -47 75 -157 96 -232 46 -22 -14 -45
-39 -52 -55 -11 -28 -14 -29 -64 -25 -47 4 -55 1 -80 -23 -39 -39 -39 -106 1
-143 26 -25 27 -29 15 -62 -38 -105 51 -214 159 -195 24 4 57 7 73 6 17 -1 69
-3 116 -5 47 -1 90 -6 96 -9 7 -4 30 -1 52 6 23 8 45 11 53 6 7 -5 421 -9 920
-9 l908 0 31 28 c26 23 33 38 37 80 2 29 8 52 13 52 5 0 9 -4 9 -9 0 -16 66
-51 96 -51 22 0 33 -8 46 -30 39 -69 151 -93 218 -47 67 45 90 140 50 205 -13
21 -20 50 -20 81 0 109 -130 172 -207 99 -18 -17 -37 -23 -73 -24 -28 0 -60
-8 -75 -18 -15 -10 -28 -16 -31 -14 -2 2 8 123 21 268 94 1013 175 1895 175
1911 0 11 7 19 16 19 9 0 31 15 50 34 43 43 47 99 10 143 -33 41 -42 133 -15
176 26 44 25 119 -3 165 -21 34 -84 71 -122 72 -10 0 -36 20 -58 44 -21 25
-48 48 -58 51 -13 4 -24 22 -32 52 -14 58 -65 110 -124 125 -44 12 -44 12 -44
58 0 65 -43 131 -101 155 -25 10 -53 32 -64 49 -31 47 -90 76 -157 76 l-58 0
-24 49 c-57 111 -189 134 -281 50 -45 -42 -58 -48 -48 -24 3 9 0 36 -7 60 -15
53 -62 99 -117 114 -43 12 -48 12 -85 1z m133 -69 c33 -33 39 -45 39 -80 0
-46 -11 -73 -43 -109 -16 -17 -18 -25 -9 -34 9 -9 20 -2 47 26 l35 37 0 -46
c0 -25 7 -62 15 -81 13 -32 13 -39 0 -64 -8 -16 -15 -36 -15 -44 0 -8 -8 -20
-19 -25 -16 -9 -19 -6 -25 31 -9 57 -40 109 -83 138 -30 20 -50 25 -104 26
-104 2 -129 32 -54 65 25 11 45 22 45 25 0 2 -11 9 -25 14 -30 11 -32 37 -8
87 21 46 67 73 122 73 37 0 49 -6 82 -39z m299 -77 c41 -16 71 -50 85 -92 l7
-23 -33 17 c-75 38 -190 5 -219 -65 -7 -17 -16 -31 -21 -31 -12 0 -22 66 -15
95 9 37 64 94 100 104 45 13 51 13 96 -5z m-623 -129 c65 -27 67 -33 29 -76
-19 -21 -38 -54 -42 -73 -5 -30 -10 -35 -28 -31 -65 13 -140 15 -171 5 -19 -6
-48 -27 -64 -47 -32 -39 -45 -37 -91 12 -20 22 -25 37 -25 81 0 47 4 58 31 84
35 35 85 50 128 39 39 -11 84 -55 91 -90 7 -33 35 -39 35 -9 0 12 -7 34 -15
51 -19 36 -14 46 28 58 46 13 53 13 94 -4z m664 0 c34 -18 69 -69 69 -102 0
-26 17 -40 32 -25 6 6 6 24 -2 52 -14 50 -7 60 46 66 49 6 100 -20 132 -67 54
-77 3 -199 -89 -214 -31 -5 -43 -15 -66 -51 -43 -68 -122 -84 -124 -25 -1 30
-17 73 -44 117 -13 23 -35 37 -74 51 -50 18 -57 24 -65 56 -27 104 88 192 185
142z m-431 -67 c49 -26 80 -74 80 -126 0 -29 -3 -33 -17 -27 -62 27 -131 8
-154 -43 -12 -27 -15 -28 -60 -24 -25 2 -55 0 -65 -6 -15 -9 -21 -4 -36 30
-21 47 -22 56 -6 40 23 -23 38 -13 38 23 0 79 71 152 150 154 14 1 46 -9 70
-21z m810 -78 c31 -22 64 -95 58 -130 -2 -13 -16 -31 -33 -40 -28 -16 -31 -15
-63 6 -18 12 -38 24 -43 26 -7 2 -3 17 10 38 11 19 23 54 27 77 3 24 8 43 11
43 3 0 18 -9 33 -20z m-590 -30 c0 -5 -4 -10 -10 -10 -5 0 -10 5 -10 10 0 6 5
10 10 10 6 0 10 -4 10 -10z m-537 -57 c11 -10 26 -33 34 -51 12 -30 12 -36 -6
-61 -11 -16 -25 -40 -30 -54 -11 -29 -40 -40 -92 -35 -30 3 -35 7 -39 38 -8
56 -34 46 -36 -15 -1 -27 -4 -61 -5 -74 -5 -31 15 -38 28 -9 8 19 18 22 75 24
l66 2 6 -31 c4 -19 1 -36 -8 -46 -7 -9 -21 -31 -30 -48 -14 -28 -22 -33 -51
-33 -25 0 -35 5 -40 20 -3 11 -13 20 -22 20 -12 0 -14 -7 -10 -29 5 -24 0 -36
-27 -65 -37 -41 -66 -46 -97 -15 -21 21 -22 50 -4 105 6 19 2 22 -38 26 -87
10 -144 80 -134 164 12 107 123 166 219 114 l38 -20 14 28 c40 77 128 98 189
45z m623 -2 c60 -27 88 -77 82 -148 -4 -50 -9 -60 -44 -93 -22 -20 -47 -39
-55 -42 -12 -4 -11 -10 4 -36 9 -16 17 -49 17 -72 0 -34 -6 -48 -34 -76 -29
-29 -41 -34 -81 -34 -40 0 -52 5 -81 34 -45 45 -48 108 -8 155 24 29 27 30 47
16 12 -8 27 -15 34 -15 24 0 13 29 -17 45 -16 8 -37 27 -46 40 -28 43 -59 29
-32 -15 10 -16 9 -23 -9 -42 -28 -29 -43 -70 -43 -114 0 -27 -4 -34 -19 -34
-14 0 -22 12 -30 45 -8 31 -25 58 -52 85 -31 30 -39 44 -34 60 8 27 52 55 85
55 35 0 32 27 -3 36 -70 19 -78 102 -15 135 37 19 78 6 98 -32 8 -13 17 -24
22 -24 4 0 26 18 47 39 54 54 100 62 167 32z m-425 -93 c9 -7 23 -25 32 -40
16 -26 16 -27 -13 -58 -17 -18 -30 -38 -30 -46 0 -10 -14 -14 -51 -14 -28 0
-60 -5 -71 -11 -16 -9 -23 -8 -29 2 -15 24 -10 83 10 115 32 52 117 81 152 52z
m866 -8 c35 -21 53 -49 63 -95 3 -17 12 -30 20 -30 15 0 16 14 9 79 -4 26 0
30 30 38 79 21 171 -52 171 -135 0 -77 -59 -147 -124 -147 -20 0 -29 -7 -37
-27 -32 -85 -121 -107 -155 -39 -9 17 -27 43 -40 57 -21 22 -23 30 -14 54 13
34 6 43 -21 27 -38 -24 -99 44 -99 110 0 13 8 38 18 56 36 68 116 91 179 52z
m-1557 -96 c0 -20 10 -54 22 -76 22 -39 89 -88 120 -88 13 0 16 -10 16 -44 -1
-26 6 -55 16 -70 16 -25 15 -26 -1 -26 -10 0 -30 -6 -44 -14 -25 -13 -26 -12
-37 29 -21 79 -101 144 -178 145 -25 0 -33 5 -38 25 -13 49 12 104 61 136 45
30 63 25 63 -17z m1330 -39 l0 -35 -37 16 c-21 9 -43 18 -49 21 -23 9 -25 -18
-4 -35 20 -16 21 -22 11 -57 -7 -26 -7 -53 -1 -81 12 -51 4 -78 -19 -68 -9 4
-32 9 -52 12 l-37 4 10 35 c7 24 6 50 -1 80 -11 42 -11 44 23 74 19 17 38 39
41 50 5 16 16 19 61 19 l54 0 0 -35z m-643 -64 c52 -24 76 -61 83 -125 l5 -51
40 -1 c51 -1 81 -17 105 -57 50 -82 -6 -177 -104 -177 -40 0 -92 38 -107 79
-9 22 -6 28 15 44 26 19 35 47 16 47 -6 0 -22 -7 -36 -16 -13 -9 -39 -20 -57
-23 -40 -9 -44 -37 -4 -34 16 1 27 -3 27 -11 0 -7 11 -30 25 -50 14 -20 25
-39 25 -42 0 -3 -16 -4 -36 -2 -32 3 -38 7 -49 42 -7 21 -25 51 -40 66 -19 20
-25 34 -20 49 12 37 -13 98 -55 134 -22 19 -40 39 -40 45 0 19 53 74 85 88 41
18 73 17 122 -5z m1253 -23 l32 -31 -29 -23 c-35 -29 -35 -29 -61 -1 -19 21
-21 28 -11 55 14 40 29 40 69 0z m-560 -8 c31 -29 32 -30 8 -30 -13 0 -41 -9
-63 -20 -22 -11 -41 -20 -42 -20 -5 0 -3 54 3 78 9 33 54 29 94 -8z m-1363
-93 c31 -30 37 -44 41 -90 3 -39 0 -61 -12 -79 -9 -14 -18 -47 -20 -74 l-4
-49 -38 -2 c-22 -2 -94 -4 -162 -5 -135 -3 -135 -3 -106 58 20 42 82 77 127
72 23 -2 32 1 32 12 0 11 -14 16 -50 20 l-50 5 1 42 c1 83 65 137 152 130 45
-3 59 -9 89 -40z m1858 6 l36 -38 17 22 c51 64 160 55 197 -17 42 -82 -13
-170 -107 -170 -61 1 -81 19 -72 65 6 32 4 36 -11 33 -9 -1 -23 -20 -30 -41
-7 -21 -21 -47 -31 -58 -13 -15 -15 -22 -6 -31 10 -10 17 -8 33 8 20 21 21 21
57 3 40 -21 78 -24 116 -10 22 9 25 7 31 -19 4 -16 4 -33 1 -38 -7 -12 -386
-16 -386 -3 0 5 5 13 10 16 17 11 11 25 -14 35 -26 10 -93 132 -75 138 21 8
68 54 74 72 4 12 21 24 44 30 21 6 44 17 51 25 18 22 25 19 65 -22z m-407 -5
c8 -7 24 -32 34 -55 13 -30 25 -43 39 -43 10 0 36 -15 56 -34 33 -30 37 -39
41 -94 l4 -60 -53 -7 c-30 -4 -74 -5 -99 -3 -38 2 -46 7 -48 26 -4 29 -20 28
-32 -3 -9 -25 -11 -25 -130 -25 l-120 0 -6 27 c-11 42 16 104 56 131 31 20 36
21 46 8 21 -30 33 -17 31 33 -1 37 3 57 19 78 37 50 115 60 162 21z m-998 -13
c87 -45 95 -153 14 -206 -16 -10 -43 -19 -60 -19 -27 0 -32 5 -40 33 -12 39
-41 45 -35 7 2 -14 5 -41 5 -60 l1 -35 -145 0 -145 0 -3 40 c-6 79 71 150 153
142 22 -3 49 -8 61 -11 17 -6 22 -1 32 33 7 23 24 48 40 59 50 35 79 39 122
17z m732 -66 c19 -10 18 -12 -15 -34 -43 -30 -67 -79 -67 -139 l0 -46 -85 0
c-47 0 -85 4 -85 8 0 11 39 47 68 61 35 18 27 34 -13 27 l-35 -7 0 46 c0 43 1
45 29 45 16 0 36 3 45 6 11 4 16 1 16 -10 0 -24 27 -19 41 7 24 44 60 58 101
36z m-598 -186 c6 -20 2 -22 -56 -28 -82 -9 -150 -3 -156 13 -2 8 10 12 40 12
45 0 118 39 118 63 0 17 47 -34 54 -60z m1511 -69 c18 -7 45 -55 45 -79 0 -9
-13 -30 -29 -46 l-29 -29 -1176 0 c-840 0 -1182 3 -1199 11 -49 22 -61 86 -22
124 l24 25 1185 0 c651 0 1192 -3 1201 -6z m-2066 -200 c2 -2 -39 -4 -92 -4
l-96 0 4 -27 c3 -16 10 -82 15 -148 6 -66 15 -169 21 -230 23 -259 69 -801 69
-818 0 -10 3 -16 8 -14 4 3 6 -14 4 -36 -3 -47 74 -913 83 -928 4 -5 12 -9 20
-9 8 0 16 -4 19 -9 3 -4 -5 -6 -19 -4 -14 3 -28 16 -35 33 -6 15 -25 42 -42
59 l-30 30 -28 308 c-16 170 -52 556 -79 858 -28 303 -59 638 -70 745 -10 107
-16 198 -14 202 3 7 254 -1 262 -8z m361 -26 c0 -23 11 -339 25 -702 14 -364
32 -843 40 -1066 8 -223 18 -474 21 -557 l7 -153 -116 0 -116 0 -5 33 c-3 17
-37 552 -76 1187 -39 635 -73 1188 -77 1228 l-6 72 152 0 151 0 0 -42z m656
-230 c-3 -150 -11 -712 -17 -1248 -6 -536 -13 -981 -15 -987 -2 -10 -35 -13
-119 -13 l-115 0 0 118 c0 64 -7 614 -15 1222 -8 608 -15 1122 -15 1143 l0 37
151 0 152 0 -7 -272z m664 269 c0 -1 -9 -142 -20 -312 -11 -171 -33 -526 -50
-790 -44 -697 -79 -1238 -86 -1332 l-6 -83 -115 0 -116 0 7 193 c8 240 29 785
61 1612 14 352 25 657 25 677 l0 38 150 0 c83 0 150 -1 150 -3z m-1663 -74
c-2 -16 -4 -5 -4 22 0 28 2 40 4 28 2 -13 2 -35 0 -50z m501 60 l-107 -4 -4
-77 -3 -77 -2 83 -2 82 113 -2 112 -2 -107 -3z m165 -266 c2 -136 0 -242 -5
-235 -4 7 -7 126 -7 263 1 138 3 243 5 235 1 -8 5 -126 7 -263z m379 -327 c-8
-325 -9 -341 -10 -149 -2 238 12 761 16 609 1 -52 -2 -259 -6 -460z m-1035
403 c-2 -16 -4 -3 -4 27 0 30 2 43 4 28 2 -16 2 -40 0 -55z m1310 35 c-3 -8
-6 -5 -6 6 -1 11 2 17 5 13 3 -3 4 -12 1 -19z m-910 -310 c5 -146 5 -264 2
-262 -3 2 -9 123 -13 270 -4 146 -9 273 -12 282 -3 10 0 8 5 -3 6 -11 14 -140
18 -287z m910 270 c-3 -8 -6 -5 -6 6 -1 11 2 17 5 13 3 -3 4 -12 1 -19z m-10
-130 c-2 -18 -4 -6 -4 27 0 33 2 48 4 33 2 -15 2 -42 0 -60z m-1290 -45 c-2
-21 -4 -4 -4 37 0 41 2 58 4 38 2 -21 2 -55 0 -75z m1670 -5 c-2 -18 -4 -4 -4
32 0 36 2 50 4 33 2 -18 2 -48 0 -65z m-380 -13 c-5 -37 -17 -42 -17 -7 0 18
5 32 10 32 6 0 9 -11 7 -25z m-1264 -335 c4 -90 3 -95 -4 -35 -14 118 -26 329
-20 340 6 10 15 -103 24 -305z m1634 253 c-3 -10 -5 -2 -5 17 0 19 2 27 5 18
2 -10 2 -26 0 -35z m-380 -160 c-2 -37 -3 -9 -3 62 0 72 1 102 3 68 2 -34 2
-93 0 -130z m-627 -160 c0 -146 -2 -264 -4 -262 -8 9 -13 529 -5 529 5 0 9
-120 9 -267z m997 104 c-2 -23 -3 -1 -3 48 0 50 1 68 3 42 2 -26 2 -67 0 -90z
m-6 -104 c-2 -68 -11 -67 -11 2 0 32 3 55 7 52 3 -4 5 -28 4 -54z m-374 -75
c-2 -24 -4 -5 -4 42 0 47 2 66 4 43 2 -24 2 -62 0 -85z m-858 -227 c1 -90 -1
-162 -3 -160 -2 2 -6 117 -8 254 -3 147 -2 213 2 160 4 -49 8 -164 9 -254z
m1216 51 c-4 -62 -9 -111 -11 -109 -3 2 -1 69 3 148 4 79 9 128 11 109 2 -19
1 -86 -3 -148z m-1582 8 c3 -84 2 -116 -3 -85 -8 50 -13 232 -6 224 2 -2 6
-65 9 -139z m1214 -112 c-2 -35 -3 -7 -3 62 0 69 1 97 3 63 2 -35 2 -91 0
-125z m-250 60 c-3 -7 -5 -2 -5 12 0 14 2 19 5 13 2 -7 2 -19 0 -25z m1 -500
c-1 -266 -5 -528 -9 -583 -4 -57 -5 12 -3 159 2 143 4 405 4 583 0 177 2 323
5 323 3 0 5 -217 3 -482z m-357 419 c-8 -8 -11 -3 -11 19 1 25 2 27 11 11 8
-14 8 -22 0 -30z m958 -141 c-2 -80 -7 -142 -11 -138 -7 8 2 282 10 282 2 0 3
-65 1 -144z m-1551 14 c-1 -96 -6 -82 -10 32 -2 42 0 71 4 65 4 -7 7 -50 6
-97z m604 -510 c2 -338 1 -532 -3 -430 -7 198 -11 1056 -5 1049 2 -2 5 -281 8
-619z m585 478 c-2 -18 -4 -6 -4 27 0 33 2 48 4 33 2 -15 2 -42 0 -60z m-830
-95 c-2 -21 -4 -4 -4 37 0 41 2 58 4 38 2 -21 2 -55 0 -75z m1220 45 c-3 -8
-6 -5 -6 6 -1 11 2 17 5 13 3 -3 4 -12 1 -19z m-390 -20 c-3 -7 -5 -2 -5 12 0
14 2 19 5 13 2 -7 2 -19 0 -25z m-1180 -70 c-2 -18 -4 -6 -4 27 0 33 2 48 4
33 2 -15 2 -42 0 -60z m1183 35 c0 -10 -5 -25 -10 -33 -7 -11 -10 -7 -10 18 0
17 5 32 10 32 6 0 10 -8 10 -17z m-823 -295 c-1 -46 -3 -9 -3 82 0 91 2 128 3
83 2 -46 2 -120 0 -165z m810 60 c-2 -35 -3 -7 -3 62 0 69 1 97 3 63 2 -35 2
-91 0 -125z m-1153 16 c6 -101 5 -112 -11 -118 -13 -5 -15 -4 -7 4 8 8 10 47
6 123 -2 62 -2 110 0 107 3 -3 8 -55 12 -116z m3 -146 c-3 -8 -6 -5 -6 6 -1
11 2 17 5 13 3 -3 4 -12 1 -19z m1140 -130 c-2 -24 -4 -5 -4 42 0 47 2 66 4
43 2 -24 2 -62 0 -85z m-1130 -35 c-2 -27 -3 -5 -3 47 0 52 1 74 3 48 2 -27 2
-69 0 -95z m352 -176 c1 -100 1 -180 -2 -177 -2 3 -7 106 -9 230 -3 124 -3
203 1 177 4 -27 8 -130 10 -230z m768 71 c-2 -13 -4 -3 -4 22 0 25 2 35 4 23
2 -13 2 -33 0 -45z m-1110 30 c-3 -8 -6 -5 -6 6 -1 11 2 17 5 13 3 -3 4 -12 1
-19z m-412 -28 c37 -34 39 -54 10 -95 -26 -40 -34 -115 -15 -145 6 -10 5 -22
-4 -35 -23 -36 -28 -81 -12 -118 16 -40 13 -47 -23 -47 -69 0 -126 80 -102
143 9 22 17 27 46 27 24 0 35 5 35 15 0 9 -9 15 -23 15 -12 0 -40 9 -62 20
-48 24 -74 10 -37 -20 19 -16 21 -23 13 -39 -14 -25 -14 -72 -1 -107 14 -36 2
-47 -51 -47 -36 0 -48 6 -76 36 -24 27 -33 46 -33 71 0 48 18 83 46 90 39 10
30 36 -13 36 -20 0 -45 7 -55 17 -39 35 -8 113 46 113 13 0 35 -9 50 -21 l26
-20 10 28 c32 89 69 116 148 110 37 -3 59 -10 77 -27z m412 -57 c-2 -16 -4 -5
-4 22 0 28 2 40 4 28 2 -13 2 -35 0 -50z m2026 -45 c26 -27 28 -35 22 -75 -6
-38 -3 -49 16 -69 30 -32 32 -102 3 -141 -25 -34 -90 -59 -128 -49 -16 4 -42
20 -58 37 l-30 30 38 34 c33 28 36 34 22 40 -11 4 -25 -1 -38 -13 -30 -28 -66
-35 -106 -22 -46 16 -74 54 -74 102 0 55 51 108 104 108 25 0 36 -5 36 -14 0
-30 20 -26 37 8 19 40 67 68 103 61 14 -3 38 -20 53 -37z m-2237 -2 c38 -38
44 -77 19 -125 -8 -16 -11 -31 -8 -35 15 -15 33 -3 44 29 14 38 32 44 67 19
30 -21 52 -66 52 -109 0 -80 -104 -139 -177 -102 -26 14 -33 14 -49 2 -55 -42
-144 8 -144 80 0 30 7 44 35 69 35 33 37 46 4 46 -43 0 -35 95 12 134 46 39
101 36 145 -8z m228 -141 c4 -79 3 -134 -2 -127 -5 7 -10 30 -11 50 -1 20 -3
46 -3 57 -3 40 2 168 6 164 2 -2 6 -67 10 -144z m-25 10 c-3 -2 -16 10 -29 28
l-23 32 29 -27 c15 -15 26 -30 23 -33z m358 -142 c-2 -16 -4 -3 -4 27 0 30 2
43 4 28 2 -16 2 -40 0 -55z m-350 -15 c-3 -8 -6 -5 -6 6 -1 11 2 17 5 13 3 -3
4 -12 1 -19z m-12 -28 c3 -5 -1 -10 -10 -10 -9 0 -13 5 -10 10 3 6 8 10 10 10
2 0 7 -4 10 -10z"/>
</g>
</svg>
